<svg height ="1000" width="1000" xmlns="http://www.w3.org/2000/svg" xmlns:xlink="http://www.w3.org/1999/xlink">
<polygon id="way/10670467" points="859,493 853,513 859,514 854,529 852,528 849,530 848,533 847,537 848,540 851,541 840,576 836,577 824,578 825,583 823,583 823,587 818,586 816,594 825,595 826,603 832,602 832,605 838,604 839,612 840,613 839,614 818,608 800,668 811,671 810,676 808,675 804,687 791,683 789,688 787,688 781,707 784,707 781,715 808,724 807,726 853,741 864,704 844,698 846,691 844,691 846,684 848,685 853,671 858,673 854,682 857,687 868,689 886,629 876,627 877,623 869,621 868,624 857,621 853,599 858,600 859,598 857,598 858,594 859,595 859,593 852,591 850,578 887,591 899,554 893,553 895,542 898,542 898,544 903,545 903,544 908,545 918,509 908,506 908,504 896,501 896,503 859,493" style="stroke:#ff0000" stroke-width="20" fill="#ff0000"/>
<polygon id="way/10538721" points="551,392 602,408 604,409 588,462 600,466 602,459 606,460 605,464 625,468 628,446 607,442 617,412 618,413 619,410 622,401 620,400 621,398 608,394 608,396 555,380 551,392" style="stroke:#ff0001" stroke-width="20" fill="#ff0001"/>
<polygon id="way/10538970" points="423,645 409,692 453,705 468,658 423,645" style="stroke:#ff0002" stroke-width="20" fill="#ff0002"/>
<polygon id="way/10585088" points="288,220 283,257 402,276 409,239 288,220" style="stroke:#ff0003" stroke-width="20" fill="#ff0003"/>
<polygon id="way/10585297" points="400,385 386,384 380,423 379,431 376,451 373,467 369,497 368,503 366,516 379,519 400,385" style="stroke:#ff0004" stroke-width="20" fill="#ff0004"/>
<polygon id="way/10585309" points="222,346 192,341 185,384 176,383 174,396 183,397 175,451 205,456 222,346" style="stroke:#ff0005" stroke-width="20" fill="#ff0005"/>
<polygon id="way/10585330" points="555,500 526,491 518,516 506,512 508,504 500,500 497,510 481,504 471,535 467,534 472,516 453,513 444,564 467,568 470,557 481,561 477,572 509,581 509,578 531,581 530,585 542,588 543,585 549,586 549,584 561,586 553,578 588,588 602,542 561,529 548,525 555,500" style="stroke:#ff0006" stroke-width="20" fill="#ff0006"/>
<polygon id="way/10585370" points="427,372 425,386 463,392 462,394 454,393 454,396 468,398 469,393 523,401 525,388 427,372" style="stroke:#ff0007" stroke-width="20" fill="#ff0007"/>
<polygon id="way/10670470" points="765,641 750,637 747,644 747,643 740,641 740,640 733,638 734,637 726,635 727,634 725,633 725,633 722,631 722,629 717,627 717,625 713,623 697,669 699,670 698,672 701,673 701,671 705,672 704,675 706,676 707,673 716,676 716,677 717,677 718,676 726,679 727,676 737,679 738,674 748,677 748,675 747,675 749,669 753,669 758,650 761,652 765,641" style="stroke:#ff0008" stroke-width="20" fill="#ff0008"/>
<polygon id="way/10731394" points="906,225 896,228 905,260 918,256 913,242 911,243 906,225" style="stroke:#ff0009" stroke-width="20" fill="#ff0009"/>
<polygon id="way/10732257" points="396,458 392,482 453,492 457,468 396,458" style="stroke:#ff000a" stroke-width="20" fill="#ff000a"/>
<polygon id="way/10732258" points="254,367 250,392 296,399 300,373 254,367" style="stroke:#ff000b" stroke-width="20" fill="#ff000b"/>
<polygon id="way/10732259" points="364,279 359,285 361,295 370,295 368,300 382,302 381,298 387,299 391,290 392,283 364,279" style="stroke:#ff000c" stroke-width="20" fill="#ff000c"/>
<polygon id="way/10732263" points="164,476 163,507 235,509 235,478 164,476" style="stroke:#ff000d" stroke-width="20" fill="#ff000d"/>
<polygon id="way/10732265" points="160,520 155,551 226,562 231,530 160,520" style="stroke:#ff000e" stroke-width="20" fill="#ff000e"/>
<polygon id="way/10801297" points="637,531 631,532 624,533 619,539 616,549 616,556 620,562 625,566 622,574 632,577 634,569 644,568 651,562 653,552 652,543 645,534 637,531" style="stroke:#ff000f" stroke-width="20" fill="#ff000f"/>
<polygon id="way/10801902" points="650,606 700,623 707,596 670,583 668,582 658,580 650,606" style="stroke:#ff0010" stroke-width="20" fill="#ff0010"/>
<polygon id="way/10806323" points="423,312 422,348 447,348 447,331 450,340 459,336 457,332 477,332 478,305 468,304 468,306 447,305 447,291 424,291 423,312" style="stroke:#ff0011" stroke-width="20" fill="#ff0011"/>
<polygon id="way/10895543" points="470,233 449,233 448,246 440,246 439,243 436,241 432,241 428,243 426,256 441,257 441,260 425,260 424,291 447,291 447,305 468,306 468,304 470,233" style="stroke:#ff0012" stroke-width="20" fill="#ff0012"/>
<polygon id="way/10895544" points="481,246 481,264 518,265 519,248 481,246" style="stroke:#ff0013" stroke-width="20" fill="#ff0013"/>
<polygon id="way/10895551" points="444,394 439,427 453,429 453,431 465,433 465,429 508,436 509,427 510,427 512,414 511,414 512,405 488,401 486,415 481,414 483,400 444,394" style="stroke:#ff0014" stroke-width="20" fill="#ff0014"/>
<polygon id="way/11039789" points="376,527 372,554 399,559 404,532 388,529 388,524 384,523 384,529 376,527" style="stroke:#ff0015" stroke-width="20" fill="#ff0015"/>
<polygon id="way/11039876" points="347,516 337,515 336,525 333,529 333,530 335,528 339,532 342,532 340,551 360,553 365,523 346,520 347,516" style="stroke:#ff0016" stroke-width="20" fill="#ff0016"/>
<polygon id="way/11040231" points="627,640 618,669 607,666 606,670 605,675 614,680 612,686 624,691 620,703 657,714 664,689 654,686 657,676 682,684 689,659 627,640" style="stroke:#ff0017" stroke-width="20" fill="#ff0017"/>
<polygon id="way/11301590" points="518,160 517,176 540,177 540,174 547,174 548,161 518,160" style="stroke:#ff0018" stroke-width="20" fill="#ff0018"/>
<polygon id="way/11332322" points="531,179 527,271 640,275 641,240 626,239 626,243 605,242 605,228 618,228 618,232 659,234 659,230 669,230 671,199 607,196 607,182 531,179" style="stroke:#ff0019" stroke-width="20" fill="#ff0019"/>
<polygon id="way/11332429" points="647,244 646,276 672,277 673,245 647,244" style="stroke:#ff001a" stroke-width="20" fill="#ff001a"/>
<polygon id="way/11333652" points="260,454 247,536 265,539 265,535 268,536 273,505 270,505 272,494 280,495 283,479 283,476 286,458 275,456 276,451 269,450 268,455 260,454" style="stroke:#ff001b" stroke-width="20" fill="#ff001b"/>
<polygon id="way/11333657" points="285,437 282,453 373,467 376,451 285,437" style="stroke:#ff001c" stroke-width="20" fill="#ff001c"/>
<polygon id="way/11526912" points="265,288 260,321 295,327 300,294 265,288" style="stroke:#ff001d" stroke-width="20" fill="#ff001d"/>
<polygon id="way/12558671" points="283,479 280,495 340,504 360,507 361,502 368,503 369,497 362,496 363,491 283,479" style="stroke:#ff001e" stroke-width="20" fill="#ff001e"/>
<polygon id="way/12558771" points="330,465 328,480 361,485 363,470 330,465" style="stroke:#ff001f" stroke-width="20" fill="#ff001f"/>
<polygon id="way/12558784" points="329,463 287,456 284,474 327,480 329,463" style="stroke:#ff0020" stroke-width="20" fill="#ff0020"/>
<polygon id="way/12559129" points="562,733 576,737 579,736 584,735 592,731 597,726 601,720 603,714 602,704 599,697 594,691 583,686 575,686 567,687 560,691 554,698 551,708 551,716 554,724 559,730 562,733" style="stroke:#ff0021" stroke-width="20" fill="#ff0021"/>
<polygon id="way/12559539" points="290,406 287,422 372,435 373,430 379,431 380,423 374,422 374,420 290,406" style="stroke:#ff0022" stroke-width="20" fill="#ff0022"/>
<polygon id="way/13122428" points="690,578 696,559 693,558 691,566 671,560 667,570 671,571 673,572 690,578" style="stroke:#ff0023" stroke-width="20" fill="#ff0023"/>
<polygon id="way/13122435" points="668,550 693,558 696,559 704,562 709,541 696,537 695,540 673,534 668,550" style="stroke:#ff0024" stroke-width="20" fill="#ff0024"/>
<polygon id="way/13122443" points="716,517 706,552 715,555 725,520 716,517" style="stroke:#ff0025" stroke-width="20" fill="#ff0025"/>
<polygon id="way/17135715" points="243,843 272,829 281,840 269,850 301,854 305,856 304,860 318,864 319,859 356,865 358,855 356,853 359,850 353,844 360,834 351,825 348,831 344,836 341,839 349,848 347,851 336,849 326,849 325,842 320,842 320,848 313,848 305,847 306,845 304,844 309,829 294,822 287,837 283,832 278,825 276,820 247,816 243,843" style="stroke:#ff0026" stroke-width="20" fill="#ff0026"/>
<polygon id="way/17135716" points="265,742 273,745 284,704 276,702 265,742" style="stroke:#ff0027" stroke-width="20" fill="#ff0027"/>
<polygon id="way/17135717" points="308,651 306,665 352,672 362,693 381,678 371,664 371,663 374,663 375,659 372,658 372,657 344,652 344,657 323,653 308,651" style="stroke:#ff0028" stroke-width="20" fill="#ff0028"/>
<polygon id="way/17136560" points="568,789 571,780 571,774 569,774 571,768 573,768 572,773 573,774 572,780 579,783 586,761 586,753 577,750 578,747 574,746 576,737 562,733 550,756 549,768 545,767 543,776 548,777 547,784 568,789" style="stroke:#ff0029" stroke-width="20" fill="#ff0029"/>
<polygon id="way/17136563" points="539,726 522,720 527,703 518,701 517,706 507,703 508,698 500,695 496,708 480,696 477,708 497,724 516,733 534,738 539,726" style="stroke:#ff002a" stroke-width="20" fill="#ff002a"/>
<polygon id="way/17136564" points="702,778 695,776 696,775 687,772 682,787 687,794 699,797 701,793 699,792 702,778" style="stroke:#ff002b" stroke-width="20" fill="#ff002b"/>
<polygon id="way/17136915" points="722,696 702,729 714,733 719,736 730,699 722,696" style="stroke:#ff002c" stroke-width="20" fill="#ff002c"/>
<polygon id="way/17136916" points="715,758 720,741 711,735 699,729 699,730 689,723 688,724 685,724 683,722 683,719 685,705 688,703 683,697 681,700 663,694 655,719 614,706 608,724 715,758" style="stroke:#ff002d" stroke-width="20" fill="#ff002d"/>
<polygon id="way/17137820" points="687,798 631,783 631,781 636,782 646,746 642,744 636,764 618,759 615,768 612,767 610,772 614,773 613,775 626,779 625,781 595,773 592,785 594,786 593,789 596,790 596,787 622,795 620,799 627,801 628,796 651,802 650,806 653,807 654,803 684,812 687,798" style="stroke:#ff002e" stroke-width="20" fill="#ff002e"/>
<polygon id="way/17137822" points="657,740 649,762 647,765 646,770 648,775 653,777 657,777 659,776 660,778 658,780 665,788 672,782 665,774 663,776 662,774 664,770 664,767 671,744 657,740" style="stroke:#ff002f" stroke-width="20" fill="#ff002f"/>
<polygon id="way/17138755" points="293,612 286,611 285,616 270,614 270,618 292,622 293,612" style="stroke:#ff0030" stroke-width="20" fill="#ff0030"/>
<polygon id="way/22894405" points="557,302 558,283 479,280 479,299 557,302" style="stroke:#ff0031" stroke-width="20" fill="#ff0031"/>
<polygon id="way/22898119" points="618,304 619,285 558,283 557,302 593,304 593,317 612,318 612,304 618,304" style="stroke:#ff0032" stroke-width="20" fill="#ff0032"/>
<polygon id="way/22898120" points="477,342 476,362 562,363 563,343 477,342" style="stroke:#ff0033" stroke-width="20" fill="#ff0033"/>
<polygon id="way/24488481" points="230,608 269,614 276,568 237,562 230,608" style="stroke:#ff0034" stroke-width="20" fill="#ff0034"/>
<polygon id="way/24488504" points="348,649 368,652 373,619 353,616 353,618 350,632 348,649" style="stroke:#ff0035" stroke-width="20" fill="#ff0035"/>
<polygon id="way/24488506" points="333,619 337,591 299,585 295,613 333,619" style="stroke:#ff0036" stroke-width="20" fill="#ff0036"/>
<polygon id="way/24488508" points="337,591 334,609 336,610 386,617 386,616 388,601 389,599 337,591" style="stroke:#ff0037" stroke-width="20" fill="#ff0037"/>
<polygon id="way/24501617" points="295,719 299,720 295,735 308,739 313,725 327,729 330,718 298,707 295,719" style="stroke:#ff0038" stroke-width="20" fill="#ff0038"/>
<polygon id="way/24501735" points="357,591 376,594 380,563 248,543 245,563 276,568 277,560 302,564 299,585 337,591 340,570 359,572 357,591" style="stroke:#ff0039" stroke-width="20" fill="#ff0039"/>
<polygon id="way/24501739" points="333,619 295,613 293,627 331,633 331,628 333,619" style="stroke:#ff003a" stroke-width="20" fill="#ff003a"/>
<polygon id="way/24501796" points="348,650 350,635 252,621 250,636 325,647 348,650" style="stroke:#ff003b" stroke-width="20" fill="#ff003b"/>
<polygon id="way/24501817" points="323,406 350,410 352,399 350,399 351,390 353,390 355,380 337,377 337,374 328,372 323,406" style="stroke:#ff003c" stroke-width="20" fill="#ff003c"/>
<polygon id="way/24501832" points="381,380 382,376 387,377 388,370 383,369 383,364 322,354 298,350 294,373 298,373 299,368 381,380" style="stroke:#ff003d" stroke-width="20" fill="#ff003d"/>
<polygon id="way/24800452" points="627,284 627,301 688,303 688,286 627,284" style="stroke:#ff003e" stroke-width="20" fill="#ff003e"/>
<polygon id="way/24800489" points="638,303 637,353 630,352 630,350 596,349 596,332 591,331 591,328 602,331 602,328 604,329 605,324 604,324 604,321 590,317 588,324 582,324 582,369 641,372 641,373 649,373 649,367 661,367 661,360 650,356 650,352 679,353 681,304 638,303" style="stroke:#ff003f" stroke-width="20" fill="#ff003f"/>
<polygon id="way/24801631" points="564,311 562,363 565,363 565,369 582,369 582,311 564,311" style="stroke:#ff0040" stroke-width="20" fill="#ff0040"/>
<polygon id="way/24801635" points="544,305 543,343 563,343 564,306 544,305" style="stroke:#ff0041" stroke-width="20" fill="#ff0041"/>
<polygon id="way/25420765" points="900,15 900,23 905,23 906,26 935,29 935,30 934,30 933,48 964,48 964,31 942,30 942,26 945,27 945,23 946,23 946,13 933,12 933,15 904,15 904,15 900,15" style="stroke:#ff0042" stroke-width="20" fill="#ff0042"/>
<polygon id="way/28256885" points="676,170 711,175 717,137 705,135 705,137 682,133 676,170" style="stroke:#ff0043" stroke-width="20" fill="#ff0043"/>
<polygon id="way/28257037" points="746,139 743,160 774,165 776,151 771,150 772,142 746,139" style="stroke:#ff0044" stroke-width="20" fill="#ff0044"/>
<polygon id="way/34746205" points="114,711 113,718 126,721 127,713 114,711" style="stroke:#ff0045" stroke-width="20" fill="#ff0045"/>
<polygon id="way/34746206" points="136,724 135,734 120,731 119,737 134,740 133,745 142,747 145,725 136,724" style="stroke:#ff0046" stroke-width="20" fill="#ff0046"/>
<polygon id="way/36716318" points="920,407 921,399 908,397 905,396 905,394 902,393 896,392 894,403 920,407" style="stroke:#ff0047" stroke-width="20" fill="#ff0047"/>
<polygon id="way/45606692" points="784,135 780,158 808,162 811,140 784,135" style="stroke:#ff0048" stroke-width="20" fill="#ff0048"/>
<polygon id="way/45606693" points="751,171 741,169 740,179 763,183 764,177 751,175 751,171" style="stroke:#ff0049" stroke-width="20" fill="#ff0049"/>
<polygon id="way/45606694" points="674,128 656,125 653,143 651,143 650,151 627,147 629,134 584,127 583,136 588,136 584,159 611,163 612,160 625,162 625,165 636,167 636,164 648,166 648,163 658,165 657,170 667,172 674,128" style="stroke:#ff004a" stroke-width="20" fill="#ff004a"/>
<polygon id="way/45984560" points="642,501 639,517 646,518 644,526 651,527 651,525 680,530 684,501 672,499 670,496 650,493 648,501 642,501" style="stroke:#ff004b" stroke-width="20" fill="#ff004b"/>
<polygon id="way/46129057" points="339,762 331,768 325,760 323,762 317,757 312,762 316,767 314,769 315,769 315,770 315,770 315,771 318,774 319,773 326,781 330,776 332,778 333,776 334,778 339,778 341,776 343,779 348,774 339,762" style="stroke:#ff004c" stroke-width="20" fill="#ff004c"/>
<polygon id="way/46129061" points="153,768 151,778 146,778 144,788 145,788 145,797 148,798 148,799 168,802 169,804 180,806 205,810 206,808 226,811 227,804 232,805 233,790 230,790 231,781 153,768" style="stroke:#ff004d" stroke-width="20" fill="#ff004d"/>
<polygon id="way/46129142" points="628,312 612,312 612,319 627,320 628,312" style="stroke:#ff004e" stroke-width="20" fill="#ff004e"/>
<polygon id="way/46129144" points="835,143 824,142 822,154 819,154 817,164 832,166 835,143" style="stroke:#ff004f" stroke-width="20" fill="#ff004f"/>
<polygon id="way/46129145" points="854,163 834,145 833,159 841,168 849,169 854,163" style="stroke:#ff0050" stroke-width="20" fill="#ff0050"/>
<polygon id="way/46129155" points="858,205 833,201 833,200 814,196 813,203 806,202 807,195 765,189 764,200 772,201 770,210 804,215 803,222 854,230 858,205" style="stroke:#ff0051" stroke-width="20" fill="#ff0051"/>
<polygon id="way/46129156" points="854,183 847,182 848,175 786,165 783,186 852,196 854,183" style="stroke:#ff0052" stroke-width="20" fill="#ff0052"/>
<polygon id="way/47026446" points="112,574 112,575 102,577 103,571 105,572 105,568 100,567 100,565 97,565 97,567 93,566 93,569 90,569 90,573 92,573 91,586 95,586 95,587 103,588 103,587 110,588 110,589 113,590 113,589 115,589 116,581 119,581 120,575 112,574" style="stroke:#ff0053" stroke-width="20" fill="#ff0053"/>
<polygon id="way/55891714" points="447,972 445,982 446,982 443,1000 489,984 488,983 488,980 467,976 467,974 447,972" style="stroke:#ff0054" stroke-width="20" fill="#ff0054"/>
<polygon id="way/83239552" points="441,196 446,167 434,165 429,194 441,196" style="stroke:#ff0055" stroke-width="20" fill="#ff0055"/>
<polygon id="way/161622037" points="705,514 733,522 736,513 728,511 727,509 721,509 708,505 705,514" style="stroke:#ff0056" stroke-width="20" fill="#ff0056"/>
<polygon id="way/182999553" points="77,601 70,655 109,659 121,661 127,625 126,610 117,607 77,601" style="stroke:#ff0057" stroke-width="20" fill="#ff0057"/>
<polygon id="way/208317131" points="253,210 243,208 240,231 232,229 235,207 225,206 222,228 214,226 217,204 206,202 198,250 210,252 213,234 221,235 218,253 228,255 231,236 239,238 236,256 246,257 253,210" style="stroke:#ff0058" stroke-width="20" fill="#ff0058"/>
<polygon id="way/233332281" points="505,93 504,96 493,97 483,82 463,80 458,84 455,103 466,117 460,148 464,155 459,189 463,190 478,181 474,213 494,216 506,134 541,130 537,90 505,93" style="stroke:#ff0059" stroke-width="20" fill="#ff0059"/>
<polygon id="way/241571549" points="644,104 611,99 611,103 584,99 582,111 610,116 610,111 642,116 644,104" style="stroke:#ff005a" stroke-width="20" fill="#ff005a"/>
<polygon id="way/350484349" points="655,405 655,422 645,474 670,479 715,466 730,458 723,437 708,445 674,454 676,425 675,408 655,405" style="stroke:#ff005b" stroke-width="20" fill="#ff005b"/>
<polygon id="way/350484350" points="787,423 786,456 784,464 771,461 750,454 743,474 774,480 799,482 803,458 804,423 787,423" style="stroke:#ff005c" stroke-width="20" fill="#ff005c"/>
<polygon id="way/350484351" points="781,541 772,569 789,575 806,522 801,524 795,525 789,525 782,523 741,510 735,526 781,541" style="stroke:#ff005d" stroke-width="20" fill="#ff005d"/>
<polygon id="way/350484352" points="889,353 885,372 925,378 935,364 975,329 963,314 917,356 889,353" style="stroke:#ff005e" stroke-width="20" fill="#ff005e"/>
<metadata id="1401062652130" title="Monash University Clayton campus 1000 by 1000" description="Automatically generated map" category="map">
<summary>
This map is centred around Monash University Clayton campus. It contains 0 streets, and 95 points of interest.
</summary>
    <gravvitas>
<id>way/10670467</id>
      <interiorcolor>ff0000</interiorcolor>
      <bordercolor>
</bordercolor>
<cornercolor>
</cornercolor>
<audio>
</audio>
<volume>
</volume>
<text>Monash Sport %281%29</text>
      <vibration>
      </vibration>
      <annotation>
      </annotation>
    </gravvitas>
    <gravvitas>
<id>way/10538721</id>
      <interiorcolor>ff0001</interiorcolor>
      <bordercolor>
</bordercolor>
<cornercolor>
</cornercolor>
<audio>
</audio>
<volume>
</volume>
<text>Faculty of Information Technology %2863%29 %28CL_25Exh%29</text>
      <vibration>
      </vibration>
      <annotation>
      </annotation>
    </gravvitas>
    <gravvitas>
<id>way/10538970</id>
      <interiorcolor>ff0002</interiorcolor>
      <bordercolor>
</bordercolor>
<cornercolor>
</cornercolor>
<audio>
</audio>
<volume>
</volume>
<text>Law %2812%29 %28CL_15Anc%29</text>
      <vibration>
      </vibration>
      <annotation>
      </annotation>
    </gravvitas>
    <gravvitas>
<id>way/10585088</id>
      <interiorcolor>ff0003</interiorcolor>
      <bordercolor>
</bordercolor>
<cornercolor>
</cornercolor>
<audio>
</audio>
<volume>
</volume>
<text>Mathematics and Information Technology Services %2828%29</text>
      <vibration>
      </vibration>
      <annotation>
      </annotation>
    </gravvitas>
    <gravvitas>
<id>way/10585297</id>
      <interiorcolor>ff0004</interiorcolor>
      <bordercolor>
</bordercolor>
<cornercolor>
</cornercolor>
<audio>
</audio>
<volume>
</volume>
<text>Central Science Block %2819%29 %28CL_19Rnf%29</text>
      <vibration>
      </vibration>
      <annotation>
      </annotation>
    </gravvitas>
    <gravvitas>
<id>way/10585309</id>
      <interiorcolor>ff0005</interiorcolor>
      <bordercolor>
</bordercolor>
<cornercolor>
</cornercolor>
<audio>
</audio>
<volume>
</volume>
<text>Biotechnology %2875%29 %2815 Inn Wk%29</text>
      <vibration>
      </vibration>
      <annotation>
      </annotation>
    </gravvitas>
    <gravvitas>
<id>way/10585330</id>
      <interiorcolor>ff0006</interiorcolor>
      <bordercolor>
</bordercolor>
<cornercolor>
</cornercolor>
<audio>
</audio>
<volume>
</volume>
<text>Campus Centre %2810%29 %28CL_21Chn%29</text>
      <vibration>
      </vibration>
      <annotation>
      </annotation>
    </gravvitas>
    <gravvitas>
<id>way/10585370</id>
      <interiorcolor>ff0007</interiorcolor>
      <bordercolor>
</bordercolor>
<cornercolor>
</cornercolor>
<audio>
</audio>
<volume>
</volume>
<text>Physics and Computer Science %2826%29 14 Rainforest Walk</text>
      <vibration>
      </vibration>
      <annotation>
      </annotation>
    </gravvitas>
    <gravvitas>
<id>way/10670470</id>
      <interiorcolor>ff0008</interiorcolor>
      <bordercolor>
</bordercolor>
<cornercolor>
</cornercolor>
<audio>
</audio>
<volume>
</volume>
<text>Sir Robert Blackwood Concert Hall %282%29</text>
      <vibration>
      </vibration>
      <annotation>
      </annotation>
    </gravvitas>
    <gravvitas>
<id>way/10731394</id>
      <interiorcolor>ff0009</interiorcolor>
      <bordercolor>
</bordercolor>
<cornercolor>
</cornercolor>
<audio>
</audio>
<volume>
</volume>
<text>Hockey Pavillion</text>
      <vibration>
      </vibration>
      <annotation>
      </annotation>
    </gravvitas>
    <gravvitas>
<id>way/10732257</id>
      <interiorcolor>ff000a</interiorcolor>
      <bordercolor>
</bordercolor>
<cornercolor>
</cornercolor>
<audio>
</audio>
<volume>
</volume>
<text>First Year Chemistry %2820%29 %28CL_22Rnf%29</text>
      <vibration>
      </vibration>
      <annotation>
      </annotation>
    </gravvitas>
    <gravvitas>
<id>way/10732258</id>
      <interiorcolor>ff000b</interiorcolor>
      <bordercolor>
</bordercolor>
<cornercolor>
</cornercolor>
<audio>
</audio>
<volume>
</volume>
<text>Microbiology %2853%29 %28CL_12Inn%29</text>
      <vibration>
      </vibration>
      <annotation>
      </annotation>
    </gravvitas>
    <gravvitas>
<id>way/10732259</id>
      <interiorcolor>ff000c</interiorcolor>
      <bordercolor>
</bordercolor>
<cornercolor>
</cornercolor>
<audio>
</audio>
<volume>
</volume>
<text>Northern Science Lecture Theatres %2829%29 11 Rainforest Walk</text>
      <vibration>
      </vibration>
      <annotation>
      </annotation>
    </gravvitas>
    <gravvitas>
<id>way/10732263</id>
      <interiorcolor>ff000d</interiorcolor>
      <bordercolor>
</bordercolor>
<cornercolor>
</cornercolor>
<audio>
</audio>
<volume>
</volume>
<text>School of Biomedical Sciences %2876%29 19 Innovation Wk</text>
      <vibration>
      </vibration>
      <annotation>
      </annotation>
    </gravvitas>
    <gravvitas>
<id>way/10732265</id>
      <interiorcolor>ff000e</interiorcolor>
      <bordercolor>
</bordercolor>
<cornercolor>
</cornercolor>
<audio>
</audio>
<volume>
</volume>
<text>School of Biomedical Sciences %2877%29 %28STRIP3%29 %28CL_23Inn%29</text>
      <vibration>
      </vibration>
      <annotation>
      </annotation>
    </gravvitas>
    <gravvitas>
<id>way/10801297</id>
      <interiorcolor>ff000f</interiorcolor>
      <bordercolor>
</bordercolor>
<cornercolor>
</cornercolor>
<audio>
</audio>
<volume>
</volume>
<text>Religious Centre %289%29 %28CL_38Exh%29</text>
      <vibration>
      </vibration>
      <annotation>
      </annotation>
    </gravvitas>
    <gravvitas>
<id>way/10801902</id>
      <interiorcolor>ff0010</interiorcolor>
      <bordercolor>
</bordercolor>
<cornercolor>
</cornercolor>
<audio>
</audio>
<volume>
</volume>
<text>Administration Building %283a%29</text>
      <vibration>
      </vibration>
      <annotation>
      </annotation>
    </gravvitas>
    <gravvitas>
<id>way/10806323</id>
      <interiorcolor>ff0011</interiorcolor>
      <bordercolor>
</bordercolor>
<cornercolor>
</cornercolor>
<audio>
</audio>
<volume>
</volume>
<text>Hargrave-Andrew Library %2830%29 13 College Walk</text>
      <vibration>
      </vibration>
      <annotation>
      </annotation>
    </gravvitas>
    <gravvitas>
<id>way/10895543</id>
      <interiorcolor>ff0012</interiorcolor>
      <bordercolor>
</bordercolor>
<cornercolor>
</cornercolor>
<audio>
</audio>
<volume>
</volume>
<text>Engineering Building %2872%29 %28CL_14All%29</text>
      <vibration>
      </vibration>
      <annotation>
      </annotation>
    </gravvitas>
    <gravvitas>
<id>way/10895544</id>
      <interiorcolor>ff0013</interiorcolor>
      <bordercolor>
</bordercolor>
<cornercolor>
</cornercolor>
<audio>
</audio>
<volume>
</volume>
<text>Australian Pulp and Paper Building %2859%29</text>
      <vibration>
      </vibration>
      <annotation>
      </annotation>
    </gravvitas>
    <gravvitas>
<id>way/10895551</id>
      <interiorcolor>ff0014</interiorcolor>
      <bordercolor>
</bordercolor>
<cornercolor>
</cornercolor>
<audio>
</audio>
<volume>
</volume>
<text>Eastern Science Lecture Theatres %2825%29 %28CL_16Rnf%29</text>
      <vibration>
      </vibration>
      <annotation>
      </annotation>
    </gravvitas>
    <gravvitas>
<id>way/11039789</id>
      <interiorcolor>ff0015</interiorcolor>
      <bordercolor>
</bordercolor>
<cornercolor>
</cornercolor>
<audio>
</audio>
<volume>
</volume>
<text>Centre for Medical and Health Sciences Education %2815%29 %28CL_27Rnf%29</text>
      <vibration>
      </vibration>
      <annotation>
      </annotation>
    </gravvitas>
    <gravvitas>
<id>way/11039876</id>
      <interiorcolor>ff0016</interiorcolor>
      <bordercolor>
</bordercolor>
<cornercolor>
</cornercolor>
<audio>
</audio>
<volume>
</volume>
<text>Biochemistry Teaching Laboratories %2816%29 %28CL_11Chn%29</text>
      <vibration>
      </vibration>
      <annotation>
      </annotation>
    </gravvitas>
    <gravvitas>
<id>way/11040231</id>
      <interiorcolor>ff0017</interiorcolor>
      <bordercolor>
</bordercolor>
<cornercolor>
</cornercolor>
<audio>
</audio>
<volume>
</volume>
<text>Sir Louis Matheson Library %284%29</text>
      <vibration>
      </vibration>
      <annotation>
      </annotation>
    </gravvitas>
    <gravvitas>
<id>way/11301590</id>
      <interiorcolor>ff0018</interiorcolor>
      <bordercolor>
</bordercolor>
<cornercolor>
</cornercolor>
<audio>
</audio>
<volume>
</volume>
<text>Boiler House %2838%29</text>
      <vibration>
      </vibration>
      <annotation>
      </annotation>
    </gravvitas>
    <gravvitas>
<id>way/11332322</id>
      <interiorcolor>ff0019</interiorcolor>
      <bordercolor>
</bordercolor>
<cornercolor>
</cornercolor>
<audio>
</audio>
<volume>
</volume>
<text>Engineering Building %2837%29 %28CL_17All%29</text>
      <vibration>
      </vibration>
      <annotation>
      </annotation>
    </gravvitas>
    <gravvitas>
<id>way/11332429</id>
      <interiorcolor>ff001a</interiorcolor>
      <bordercolor>
</bordercolor>
<cornercolor>
</cornercolor>
<audio>
</audio>
<volume>
</volume>
<text>Accident Research Centre %2870%29</text>
      <vibration>
      </vibration>
      <annotation>
      </annotation>
    </gravvitas>
    <gravvitas>
<id>way/11333652</id>
      <interiorcolor>ff001b</interiorcolor>
      <bordercolor>
</bordercolor>
<cornercolor>
</cornercolor>
<audio>
</audio>
<volume>
</volume>
<text>School of Biology %2817%29 %28CL_18Inn%29</text>
      <vibration>
      </vibration>
      <annotation>
      </annotation>
    </gravvitas>
    <gravvitas>
<id>way/11333657</id>
      <interiorcolor>ff001c</interiorcolor>
      <bordercolor>
</bordercolor>
<cornercolor>
</cornercolor>
<audio>
</audio>
<volume>
</volume>
<text>School of Chemistry %2823S%29</text>
      <vibration>
      </vibration>
      <annotation>
      </annotation>
    </gravvitas>
    <gravvitas>
<id>way/11526912</id>
      <interiorcolor>ff001d</interiorcolor>
      <bordercolor>
</bordercolor>
<cornercolor>
</cornercolor>
<audio>
</audio>
<volume>
</volume>
<text>Monash Centre for Electron Microscopy %2881%29</text>
      <vibration>
      </vibration>
      <annotation>
      </annotation>
    </gravvitas>
    <gravvitas>
<id>way/12558671</id>
      <interiorcolor>ff001e</interiorcolor>
      <bordercolor>
</bordercolor>
<cornercolor>
</cornercolor>
<audio>
</audio>
<volume>
</volume>
<text>Senior Zoology %2818%29 %28CL_25Rnf%29</text>
      <vibration>
      </vibration>
      <annotation>
      </annotation>
    </gravvitas>
    <gravvitas>
<id>way/12558771</id>
      <interiorcolor>ff001f</interiorcolor>
      <bordercolor>
</bordercolor>
<cornercolor>
</cornercolor>
<audio>
</audio>
<volume>
</volume>
<text>Zoology Lecture Theatres %2821%29 %28CL_21Rnf%29</text>
      <vibration>
      </vibration>
      <annotation>
      </annotation>
    </gravvitas>
    <gravvitas>
<id>way/12558784</id>
      <interiorcolor>ff0020</interiorcolor>
      <bordercolor>
</bordercolor>
<cornercolor>
</cornercolor>
<audio>
</audio>
<volume>
</volume>
<text>First Year Biology %2822%29 %28CL_23Rnf%29</text>
      <vibration>
      </vibration>
      <annotation>
      </annotation>
    </gravvitas>
    <gravvitas>
<id>way/12559129</id>
      <interiorcolor>ff0021</interiorcolor>
      <bordercolor>
</bordercolor>
<cornercolor>
</cornercolor>
<audio>
</audio>
<volume>
</volume>
<text>Rotunda %288%29 %28CL_46Exh%29</text>
      <vibration>
      </vibration>
      <annotation>
      </annotation>
    </gravvitas>
    <gravvitas>
<id>way/12559539</id>
      <interiorcolor>ff0022</interiorcolor>
      <bordercolor>
</bordercolor>
<cornercolor>
</cornercolor>
<audio>
</audio>
<volume>
</volume>
<text>School of Chemistry %2823N%29 17 Rainforest Walk</text>
      <vibration>
      </vibration>
      <annotation>
      </annotation>
    </gravvitas>
    <gravvitas>
<id>way/13122428</id>
      <interiorcolor>ff0023</interiorcolor>
      <bordercolor>
</bordercolor>
<cornercolor>
</cornercolor>
<audio>
</audio>
<volume>
</volume>
<text>Administration Building %283b%29</text>
      <vibration>
      </vibration>
      <annotation>
      </annotation>
    </gravvitas>
    <gravvitas>
<id>way/13122435</id>
      <interiorcolor>ff0024</interiorcolor>
      <bordercolor>
</bordercolor>
<cornercolor>
</cornercolor>
<audio>
</audio>
<volume>
</volume>
<text>Administration Building %283c%29</text>
      <vibration>
      </vibration>
      <annotation>
      </annotation>
    </gravvitas>
    <gravvitas>
<id>way/13122443</id>
      <interiorcolor>ff0025</interiorcolor>
      <bordercolor>
</bordercolor>
<cornercolor>
</cornercolor>
<audio>
</audio>
<volume>
</volume>
<text>Administration Building %283d%29</text>
      <vibration>
      </vibration>
      <annotation>
      </annotation>
    </gravvitas>
    <gravvitas>
<id>way/17135715</id>
      <interiorcolor>ff0026</interiorcolor>
      <bordercolor>
</bordercolor>
<cornercolor>
</cornercolor>
<audio>
</audio>
<volume>
</volume>
<text>Monash College Building %2873%29</text>
      <vibration>
      </vibration>
      <annotation>
      </annotation>
    </gravvitas>
    <gravvitas>
<id>way/17135716</id>
      <interiorcolor>ff0027</interiorcolor>
      <bordercolor>
</bordercolor>
<cornercolor>
</cornercolor>
<audio>
</audio>
<volume>
</volume>
<text>Yarrawonga Building %2858%29</text>
      <vibration>
      </vibration>
      <annotation>
      </annotation>
    </gravvitas>
    <gravvitas>
<id>way/17135717</id>
      <interiorcolor>ff0028</interiorcolor>
      <bordercolor>
</bordercolor>
<cornercolor>
</cornercolor>
<audio>
</audio>
<volume>
</volume>
<text>Faculty of Medicine Offices %2864%29 %28CL_43Rnf%29</text>
      <vibration>
      </vibration>
      <annotation>
      </annotation>
    </gravvitas>
    <gravvitas>
<id>way/17136560</id>
      <interiorcolor>ff0029</interiorcolor>
      <bordercolor>
</bordercolor>
<cornercolor>
</cornercolor>
<audio>
</audio>
<volume>
</volume>
<text>Alexander Theatre %287%29 %28CL48Exh%29</text>
      <vibration>
      </vibration>
      <annotation>
      </annotation>
    </gravvitas>
    <gravvitas>
<id>way/17136563</id>
      <interiorcolor>ff002a</interiorcolor>
      <bordercolor>
</bordercolor>
<cornercolor>
</cornercolor>
<audio>
</audio>
<volume>
</volume>
<text>Gallery Building %2855%29 %28CL_21ANC%29</text>
      <vibration>
      </vibration>
      <annotation>
      </annotation>
    </gravvitas>
    <gravvitas>
<id>way/17136564</id>
      <interiorcolor>ff002b</interiorcolor>
      <bordercolor>
</bordercolor>
<cornercolor>
</cornercolor>
<audio>
</audio>
<volume>
</volume>
<text>Parking and Security %2861%29</text>
      <vibration>
      </vibration>
      <annotation>
      </annotation>
    </gravvitas>
    <gravvitas>
<id>way/17136915</id>
      <interiorcolor>ff002c</interiorcolor>
      <bordercolor>
</bordercolor>
<cornercolor>
</cornercolor>
<audio>
</audio>
<volume>
</volume>
<text>Performing Arts Precinct %2868%29 %28CL_55Sce%29</text>
      <vibration>
      </vibration>
      <annotation>
      </annotation>
    </gravvitas>
    <gravvitas>
<id>way/17136916</id>
      <interiorcolor>ff002d</interiorcolor>
      <bordercolor>
</bordercolor>
<cornercolor>
</cornercolor>
<audio>
</audio>
<volume>
</volume>
<text>Information Services Building %2867%29</text>
      <vibration>
      </vibration>
      <annotation>
      </annotation>
    </gravvitas>
    <gravvitas>
<id>way/17137820</id>
      <interiorcolor>ff002e</interiorcolor>
      <bordercolor>
</bordercolor>
<cornercolor>
</cornercolor>
<audio>
</audio>
<volume>
</volume>
<text>Education %286%29 %28CL_29Anc%29</text>
      <vibration>
      </vibration>
      <annotation>
      </annotation>
    </gravvitas>
    <gravvitas>
<id>way/17137822</id>
      <interiorcolor>ff002f</interiorcolor>
      <bordercolor>
</bordercolor>
<cornercolor>
</cornercolor>
<audio>
</audio>
<volume>
</volume>
<text>Krongold Centre %285%29 %28CL_57Sce%29</text>
      <vibration>
      </vibration>
      <annotation>
      </annotation>
    </gravvitas>
    <gravvitas>
<id>way/17138755</id>
      <interiorcolor>ff0030</interiorcolor>
      <bordercolor>
</bordercolor>
<cornercolor>
</cornercolor>
<audio>
</audio>
<volume>
</volume>
<text>Bldg 14</text>
      <vibration>
      </vibration>
      <annotation>
      </annotation>
    </gravvitas>
    <gravvitas>
<id>way/22894405</id>
      <interiorcolor>ff0031</interiorcolor>
      <bordercolor>
</bordercolor>
<cornercolor>
</cornercolor>
<audio>
</audio>
<volume>
</volume>
<text>Engineering Building %2835%29 %28CL_16All%29</text>
      <vibration>
      </vibration>
      <annotation>
      </annotation>
    </gravvitas>
    <gravvitas>
<id>way/22898119</id>
      <interiorcolor>ff0032</interiorcolor>
      <bordercolor>
</bordercolor>
<cornercolor>
</cornercolor>
<audio>
</audio>
<volume>
</volume>
<text>Engineering Building %2836%29 %28CL_18All%29</text>
      <vibration>
      </vibration>
      <annotation>
      </annotation>
    </gravvitas>
    <gravvitas>
<id>way/22898120</id>
      <interiorcolor>ff0033</interiorcolor>
      <bordercolor>
</bordercolor>
<cornercolor>
</cornercolor>
<audio>
</audio>
<volume>
</volume>
<text>Engineering Building %2831%29</text>
      <vibration>
      </vibration>
      <annotation>
      </annotation>
    </gravvitas>
    <gravvitas>
<id>way/24488481</id>
      <interiorcolor>ff0034</interiorcolor>
      <bordercolor>
</bordercolor>
<cornercolor>
</cornercolor>
<audio>
</audio>
<volume>
</volume>
<text>Medicine %2813F%29 %28CL_26Inn%29</text>
      <vibration>
      </vibration>
      <annotation>
      </annotation>
    </gravvitas>
    <gravvitas>
<id>way/24488504</id>
      <interiorcolor>ff0035</interiorcolor>
      <bordercolor>
</bordercolor>
<cornercolor>
</cornercolor>
<audio>
</audio>
<volume>
</volume>
<text>Medicine %2813B%29 %28CL_39Rnf%29</text>
      <vibration>
      </vibration>
      <annotation>
      </annotation>
    </gravvitas>
    <gravvitas>
<id>way/24488506</id>
      <interiorcolor>ff0036</interiorcolor>
      <bordercolor>
</bordercolor>
<cornercolor>
</cornercolor>
<audio>
</audio>
<volume>
</volume>
<text>Medicine %2813%29</text>
      <vibration>
      </vibration>
      <annotation>
      </annotation>
    </gravvitas>
    <gravvitas>
<id>way/24488508</id>
      <interiorcolor>ff0037</interiorcolor>
      <bordercolor>
</bordercolor>
<cornercolor>
</cornercolor>
<audio>
</audio>
<volume>
</volume>
<text>Medicine %2813D%29 %28CL_35Rnf%29</text>
      <vibration>
      </vibration>
      <annotation>
      </annotation>
    </gravvitas>
    <gravvitas>
<id>way/24501617</id>
      <interiorcolor>ff0038</interiorcolor>
      <bordercolor>
</bordercolor>
<cornercolor>
</cornercolor>
<audio>
</audio>
<volume>
</volume>
<text>Japanese Studies Centre %2854%29 %28CL_12Anc%29</text>
      <vibration>
      </vibration>
      <annotation>
      </annotation>
    </gravvitas>
    <gravvitas>
<id>way/24501735</id>
      <interiorcolor>ff0039</interiorcolor>
      <bordercolor>
</bordercolor>
<cornercolor>
</cornercolor>
<audio>
</audio>
<volume>
</volume>
<text>Medicine %2813C%29 %28CL_10Chn%29</text>
      <vibration>
      </vibration>
      <annotation>
      </annotation>
    </gravvitas>
    <gravvitas>
<id>way/24501739</id>
      <interiorcolor>ff003a</interiorcolor>
      <bordercolor>
</bordercolor>
<cornercolor>
</cornercolor>
<audio>
</audio>
<volume>
</volume>
<text>Medicine %2813A%29 %28CL_37Rnf%29</text>
      <vibration>
      </vibration>
      <annotation>
      </annotation>
    </gravvitas>
    <gravvitas>
<id>way/24501796</id>
      <interiorcolor>ff003b</interiorcolor>
      <bordercolor>
</bordercolor>
<cornercolor>
</cornercolor>
<audio>
</audio>
<volume>
</volume>
<text>Medicine %2813E%29 %28CL_9Anc%29</text>
      <vibration>
      </vibration>
      <annotation>
      </annotation>
    </gravvitas>
    <gravvitas>
<id>way/24501817</id>
      <interiorcolor>ff003c</interiorcolor>
      <bordercolor>
</bordercolor>
<cornercolor>
</cornercolor>
<audio>
</audio>
<volume>
</volume>
<text>Western Science Lecture Theatres %2824%29 %28CL_15Rnf%29</text>
      <vibration>
      </vibration>
      <annotation>
      </annotation>
    </gravvitas>
    <gravvitas>
<id>way/24501832</id>
      <interiorcolor>ff003d</interiorcolor>
      <bordercolor>
</bordercolor>
<cornercolor>
</cornercolor>
<audio>
</audio>
<volume>
</volume>
<text>Senior Physics %2827%29 10 College Walk</text>
      <vibration>
      </vibration>
      <annotation>
      </annotation>
    </gravvitas>
    <gravvitas>
<id>way/24800452</id>
      <interiorcolor>ff003e</interiorcolor>
      <bordercolor>
</bordercolor>
<cornercolor>
</cornercolor>
<audio>
</audio>
<volume>
</volume>
<text>Engineering Building %2869%29 %28CL_22All%29</text>
      <vibration>
      </vibration>
      <annotation>
      </annotation>
    </gravvitas>
    <gravvitas>
<id>way/24800489</id>
      <interiorcolor>ff003f</interiorcolor>
      <bordercolor>
</bordercolor>
<cornercolor>
</cornercolor>
<audio>
</audio>
<volume>
</volume>
<text>Engineering Building %2860%29 %28CL_23Col%29</text>
      <vibration>
      </vibration>
      <annotation>
      </annotation>
    </gravvitas>
    <gravvitas>
<id>way/24801631</id>
      <interiorcolor>ff0040</interiorcolor>
      <bordercolor>
</bordercolor>
<cornercolor>
</cornercolor>
<audio>
</audio>
<volume>
</volume>
<text>Engineering Building %2832%29 %28CL_21Col%29</text>
      <vibration>
      </vibration>
      <annotation>
      </annotation>
    </gravvitas>
    <gravvitas>
<id>way/24801635</id>
      <interiorcolor>ff0041</interiorcolor>
      <bordercolor>
</bordercolor>
<cornercolor>
</cornercolor>
<audio>
</audio>
<volume>
</volume>
<text>Engineering Building %2833%29 %28CL_21Col%29</text>
      <vibration>
      </vibration>
      <annotation>
      </annotation>
    </gravvitas>
    <gravvitas>
<id>way/25420765</id>
      <interiorcolor>ff0042</interiorcolor>
      <bordercolor>
</bordercolor>
<cornercolor>
</cornercolor>
<audio>
</audio>
<volume>
</volume>
<text>Monash Science Centre %2874%29</text>
      <vibration>
      </vibration>
      <annotation>
      </annotation>
    </gravvitas>
    <gravvitas>
<id>way/28256885</id>
      <interiorcolor>ff0043</interiorcolor>
      <bordercolor>
</bordercolor>
<cornercolor>
</cornercolor>
<audio>
</audio>
<volume>
</volume>
<text>Central Store%2C Transport and Mail Services %2856%29</text>
      <vibration>
      </vibration>
      <annotation>
      </annotation>
    </gravvitas>
    <gravvitas>
<id>way/28257037</id>
      <interiorcolor>ff0044</interiorcolor>
      <bordercolor>
</bordercolor>
<cornercolor>
</cornercolor>
<audio>
</audio>
<volume>
</volume>
<text>Animal Services %2841%29</text>
      <vibration>
      </vibration>
      <annotation>
      </annotation>
    </gravvitas>
    <gravvitas>
<id>way/34746205</id>
      <interiorcolor>ff0045</interiorcolor>
      <bordercolor>
</bordercolor>
<cornercolor>
</cornercolor>
<audio>
</audio>
<volume>
</volume>
<text>High Voltage Switchroom %2862%29</text>
      <vibration>
      </vibration>
      <annotation>
      </annotation>
    </gravvitas>
    <gravvitas>
<id>way/34746206</id>
      <interiorcolor>ff0046</interiorcolor>
      <bordercolor>
</bordercolor>
<cornercolor>
</cornercolor>
<audio>
</audio>
<volume>
</volume>
<text>High Voltage Switchroom %2862a%29</text>
      <vibration>
      </vibration>
      <annotation>
      </annotation>
    </gravvitas>
    <gravvitas>
<id>way/36716318</id>
      <interiorcolor>ff0047</interiorcolor>
      <bordercolor>
</bordercolor>
<cornercolor>
</cornercolor>
<audio>
</audio>
<volume>
</volume>
<text>Tennis Club</text>
      <vibration>
      </vibration>
      <annotation>
      </annotation>
    </gravvitas>
    <gravvitas>
<id>way/45606692</id>
      <interiorcolor>ff0048</interiorcolor>
      <bordercolor>
</bordercolor>
<cornercolor>
</cornercolor>
<audio>
</audio>
<volume>
</volume>
<text>Animal Services %2841%29</text>
      <vibration>
      </vibration>
      <annotation>
      </annotation>
    </gravvitas>
    <gravvitas>
<id>way/45606693</id>
      <interiorcolor>ff0049</interiorcolor>
      <bordercolor>
</bordercolor>
<cornercolor>
</cornercolor>
<audio>
</audio>
<volume>
</volume>
<text>Animal Services %2841%29</text>
      <vibration>
      </vibration>
      <annotation>
      </annotation>
    </gravvitas>
    <gravvitas>
<id>way/45606694</id>
      <interiorcolor>ff004a</interiorcolor>
      <bordercolor>
</bordercolor>
<cornercolor>
</cornercolor>
<audio>
</audio>
<volume>
</volume>
<text>Facilities and Services %2840%29</text>
      <vibration>
      </vibration>
      <annotation>
      </annotation>
    </gravvitas>
    <gravvitas>
<id>way/45984560</id>
      <interiorcolor>ff004b</interiorcolor>
      <bordercolor>
</bordercolor>
<cornercolor>
</cornercolor>
<audio>
</audio>
<volume>
</volume>
<text>Monash University Club %2850%29</text>
      <vibration>
      </vibration>
      <annotation>
      </annotation>
    </gravvitas>
    <gravvitas>
<id>way/46129057</id>
      <interiorcolor>ff004c</interiorcolor>
      <bordercolor>
</bordercolor>
<cornercolor>
</cornercolor>
<audio>
</audio>
<volume>
</volume>
<text>Monash University House %2865%29</text>
      <vibration>
      </vibration>
      <annotation>
      </annotation>
    </gravvitas>
    <gravvitas>
<id>way/46129061</id>
      <interiorcolor>ff004d</interiorcolor>
      <bordercolor>
</bordercolor>
<cornercolor>
</cornercolor>
<audio>
</audio>
<volume>
</volume>
<text>John Monash Science School %2884%29</text>
      <vibration>
      </vibration>
      <annotation>
      </annotation>
    </gravvitas>
    <gravvitas>
<id>way/46129142</id>
      <interiorcolor>ff004e</interiorcolor>
      <bordercolor>
</bordercolor>
<cornercolor>
</cornercolor>
<audio>
</audio>
<volume>
</volume>
<text>Engineering Building %2836A%29</text>
      <vibration>
      </vibration>
      <annotation>
      </annotation>
    </gravvitas>
    <gravvitas>
<id>way/46129144</id>
      <interiorcolor>ff004f</interiorcolor>
      <bordercolor>
</bordercolor>
<cornercolor>
</cornercolor>
<audio>
</audio>
<volume>
</volume>
<text>Animal Services %2841%29</text>
      <vibration>
      </vibration>
      <annotation>
      </annotation>
    </gravvitas>
    <gravvitas>
<id>way/46129145</id>
      <interiorcolor>ff0050</interiorcolor>
      <bordercolor>
</bordercolor>
<cornercolor>
</cornercolor>
<audio>
</audio>
<volume>
</volume>
<text>Animal Services %2841%29</text>
      <vibration>
      </vibration>
      <annotation>
      </annotation>
    </gravvitas>
    <gravvitas>
<id>way/46129155</id>
      <interiorcolor>ff0051</interiorcolor>
      <bordercolor>
</bordercolor>
<cornercolor>
</cornercolor>
<audio>
</audio>
<volume>
</volume>
<text>Animal Services %2841e%29</text>
      <vibration>
      </vibration>
      <annotation>
      </annotation>
    </gravvitas>
    <gravvitas>
<id>way/46129156</id>
      <interiorcolor>ff0052</interiorcolor>
      <bordercolor>
</bordercolor>
<cornercolor>
</cornercolor>
<audio>
</audio>
<volume>
</volume>
<text>Animal Services %2841%29</text>
      <vibration>
      </vibration>
      <annotation>
      </annotation>
    </gravvitas>
    <gravvitas>
<id>way/47026446</id>
      <interiorcolor>ff0053</interiorcolor>
      <bordercolor>
</bordercolor>
<cornercolor>
</cornercolor>
<audio>
</audio>
<volume>
</volume>
<text>Monash Oakleigh Legal Service</text>
      <vibration>
      </vibration>
      <annotation>
      </annotation>
    </gravvitas>
    <gravvitas>
<id>way/55891714</id>
      <interiorcolor>ff0054</interiorcolor>
      <bordercolor>
</bordercolor>
<cornercolor>
</cornercolor>
<audio>
</audio>
<volume>
</volume>
<text>Mannix College %28218%29</text>
      <vibration>
      </vibration>
      <annotation>
      </annotation>
    </gravvitas>
    <gravvitas>
<id>way/83239552</id>
      <interiorcolor>ff0055</interiorcolor>
      <bordercolor>
</bordercolor>
<cornercolor>
</cornercolor>
<audio>
</audio>
<volume>
</volume>
<text>Bicycle Arrival Station %2880A%29</text>
      <vibration>
      </vibration>
      <annotation>
      </annotation>
    </gravvitas>
    <gravvitas>
<id>way/161622037</id>
      <interiorcolor>ff0056</interiorcolor>
      <bordercolor>
</bordercolor>
<cornercolor>
</cornercolor>
<audio>
</audio>
<volume>
</volume>
<text>Administration Building %283e%29</text>
      <vibration>
      </vibration>
      <annotation>
      </annotation>
    </gravvitas>
    <gravvitas>
<id>way/182999553</id>
      <interiorcolor>ff0057</interiorcolor>
      <bordercolor>
</bordercolor>
<cornercolor>
</cornercolor>
<audio>
</audio>
<volume>
</volume>
<text>Monash Children%27s Centre</text>
      <vibration>
      </vibration>
      <annotation>
      </annotation>
    </gravvitas>
    <gravvitas>
<id>way/208317131</id>
      <interiorcolor>ff0058</interiorcolor>
      <bordercolor>
</bordercolor>
<cornercolor>
</cornercolor>
<audio>
</audio>
<volume>
</volume>
<text>79P</text>
      <vibration>
      </vibration>
      <annotation>
      </annotation>
    </gravvitas>
    <gravvitas>
<id>way/233332281</id>
      <interiorcolor>ff0059</interiorcolor>
      <bordercolor>
</bordercolor>
<cornercolor>
</cornercolor>
<audio>
</audio>
<volume>
</volume>
<text>New Horizons %2882%29 %28CL_20Res%29</text>
      <vibration>
      </vibration>
      <annotation>
      </annotation>
    </gravvitas>
    <gravvitas>
<id>way/241571549</id>
      <interiorcolor>ff005a</interiorcolor>
      <bordercolor>
</bordercolor>
<cornercolor>
</cornercolor>
<audio>
</audio>
<volume>
</volume>
<text>Facilities and Services %2840p%29</text>
      <vibration>
      </vibration>
      <annotation>
      </annotation>
    </gravvitas>
    <gravvitas>
<id>way/350484349</id>
      <interiorcolor>ff005b</interiorcolor>
      <bordercolor>
</bordercolor>
<cornercolor>
</cornercolor>
<audio>
</audio>
<volume>
</volume>
<text>Residences CL_21Spo</text>
      <vibration>
      </vibration>
      <annotation>
      </annotation>
    </gravvitas>
    <gravvitas>
<id>way/350484350</id>
      <interiorcolor>ff005c</interiorcolor>
      <bordercolor>
</bordercolor>
<cornercolor>
</cornercolor>
<audio>
</audio>
<volume>
</volume>
<text>Residences CL_27Spo</text>
      <vibration>
      </vibration>
      <annotation>
      </annotation>
    </gravvitas>
    <gravvitas>
<id>way/350484351</id>
      <interiorcolor>ff005d</interiorcolor>
      <bordercolor>
</bordercolor>
<cornercolor>
</cornercolor>
<audio>
</audio>
<volume>
</volume>
<text>Residences CL_28Spo</text>
      <vibration>
      </vibration>
      <annotation>
      </annotation>
    </gravvitas>
    <gravvitas>
<id>way/350484352</id>
      <interiorcolor>ff005e</interiorcolor>
      <bordercolor>
</bordercolor>
<cornercolor>
</cornercolor>
<audio>
</audio>
<volume>
</volume>
<text>Residences CL_38Col</text>
      <vibration>
      </vibration>
      <annotation>
      </annotation>
    </gravvitas>
  </metadata>
</svg>